<svg width="25" height="22" viewBox="0 0 25 22" fill="none" xmlns="http://www.w3.org/2000/svg">
<path opacity="0.2" d="M11.2363 9.46094L11.2363 12.4961C11.2363 14.1276 11.1087 15.5039 10.8535 16.625C10.6074 17.7461 10.252 18.6484 9.78711 19.332C9.32227 20.0156 8.76172 20.5124 8.10547 20.8223C7.45833 21.123 6.72917 21.2734 5.91797 21.2734C5.27995 21.2734 4.68294 21.1777 4.12695 20.9863C3.58008 20.7949 3.08789 20.4896 2.65039 20.0703C2.21289 19.6419 1.83919 19.0859 1.5293 18.4023C1.2194 17.7188 0.982422 16.8893 0.818359 15.9141C0.654297 14.9388 0.572266 13.7995 0.572266 12.4961L0.572266 9.46094C0.572266 7.82943 0.69987 6.46224 0.955078 5.35938C1.21029 4.25651 1.57031 3.3724 2.03516 2.70703C2.50911 2.03255 3.06966 1.54948 3.7168 1.25781C4.37305 0.966146 5.10221 0.820313 5.9043 0.820313C6.55143 0.820313 7.14844 0.916016 7.69531 1.10742C8.2513 1.28971 8.74349 1.58594 9.17187 1.99609C9.60937 2.39714 9.98307 2.9349 10.293 3.60938C10.6029 4.27474 10.8353 5.09049 10.9902 6.05664C11.1543 7.02279 11.2363 8.15755 11.2363 9.46094ZM8.83008 12.9062L8.83008 9.03711C8.83008 8.14388 8.78906 7.36003 8.70703 6.68555C8.625 6.00195 8.50651 5.41862 8.35156 4.93555C8.19661 4.45247 7.99609 4.06055 7.75 3.75977C7.51302 3.45898 7.23958 3.24023 6.92969 3.10352C6.61979 2.95768 6.27799 2.88477 5.9043 2.88477C5.43945 2.88477 5.02474 2.9987 4.66016 3.22656C4.30469 3.44531 3.99935 3.79622 3.74414 4.2793C3.49805 4.76237 3.3112 5.39583 3.18359 6.17969C3.05599 6.96354 2.99219 7.91602 2.99219 9.03711L2.99219 12.9062C2.99219 13.7995 3.0332 14.5879 3.11523 15.2715C3.20638 15.9551 3.32943 16.5475 3.48437 17.0488C3.64844 17.541 3.84896 17.9466 4.08594 18.2656C4.32292 18.5846 4.59635 18.8216 4.90625 18.9766C5.21615 19.1224 5.55339 19.1953 5.91797 19.1953C6.40104 19.1953 6.82031 19.0768 7.17578 18.8398C7.54036 18.6029 7.8457 18.2337 8.0918 17.7324C8.33789 17.222 8.52018 16.5703 8.63867 15.7773C8.76628 14.9753 8.83008 14.0182 8.83008 12.9062ZM17.5391 9.80273H19.0977C19.7904 9.80273 20.3646 9.6569 20.8203 9.36523C21.276 9.06445 21.6133 8.65885 21.832 8.14844C22.0599 7.62891 22.1738 7.04557 22.1738 6.39844C22.1738 5.63281 22.0736 4.99023 21.873 4.4707C21.6725 3.95117 21.3717 3.55924 20.9707 3.29492C20.5788 3.0306 20.082 2.89844 19.4805 2.89844C18.9154 2.89844 18.4232 3.03971 18.0039 3.32227C17.5846 3.5957 17.2611 3.98763 17.0332 4.49805C16.8053 5.00846 16.6914 5.61003 16.6914 6.30273L14.2852 6.30273C14.2852 5.29102 14.4948 4.37044 14.9141 3.54102C15.3424 2.71159 15.944 2.05078 16.7188 1.55859C17.5026 1.06641 18.4232 0.820313 19.4805 0.820313C20.4922 0.820313 21.3809 1.03451 22.1465 1.46289C22.9121 1.88216 23.5091 2.51107 23.9375 3.34961C24.375 4.17904 24.5937 5.21354 24.5937 6.45313C24.5937 6.95443 24.498 7.49219 24.3066 8.06641C24.1243 8.63151 23.8281 9.16016 23.418 9.65234C23.0169 10.1445 22.4883 10.5501 21.832 10.8691C21.1849 11.179 20.3919 11.334 19.4531 11.334H17.5391V9.80273ZM17.5391 11.8809V10.3633H19.4531C20.5651 10.3633 21.472 10.5137 22.1738 10.8145C22.8757 11.1152 23.418 11.5163 23.8008 12.0176C24.1836 12.5189 24.4479 13.0703 24.5937 13.6719C24.7487 14.2643 24.8262 14.8568 24.8262 15.4492C24.8262 16.3789 24.6895 17.2038 24.416 17.9238C24.1517 18.6439 23.7734 19.2546 23.2812 19.7559C22.7982 20.2572 22.2331 20.6354 21.5859 20.8906C20.9388 21.1458 20.2324 21.2734 19.4668 21.2734C18.7194 21.2734 18.0267 21.1504 17.3887 20.9043C16.7507 20.6582 16.1901 20.3027 15.707 19.8379C15.224 19.3639 14.8457 18.7852 14.5723 18.1016C14.3079 17.4089 14.1758 16.6204 14.1758 15.7363H16.5957C16.5957 16.429 16.7096 17.0352 16.9375 17.5547C17.1654 18.0742 17.4935 18.4798 17.9219 18.7715C18.3503 19.054 18.8652 19.1953 19.4668 19.1953C20.0684 19.1953 20.5879 19.0632 21.0254 18.7988C21.4629 18.5254 21.8001 18.1152 22.0371 17.5684C22.2832 17.0215 22.4062 16.3333 22.4062 15.5039C22.4062 14.6745 22.2695 13.9954 21.9961 13.4668C21.7318 12.929 21.3535 12.5326 20.8613 12.2773C20.3691 12.013 19.7812 11.8809 19.0977 11.8809H17.5391Z" fill="#DF3D3A"/>
</svg>
