<svg width="26" height="22" viewBox="0 0 26 22" fill="none" xmlns="http://www.w3.org/2000/svg">
<path opacity="0.2" d="M11.2363 9.46094L11.2363 12.4961C11.2363 14.1276 11.1087 15.5039 10.8535 16.625C10.6074 17.7461 10.252 18.6484 9.78711 19.332C9.32227 20.0156 8.76172 20.5124 8.10547 20.8223C7.45833 21.123 6.72917 21.2734 5.91797 21.2734C5.27995 21.2734 4.68294 21.1777 4.12695 20.9863C3.58008 20.7949 3.08789 20.4896 2.65039 20.0703C2.21289 19.6419 1.83919 19.0859 1.5293 18.4023C1.2194 17.7188 0.982422 16.8893 0.818359 15.9141C0.654297 14.9388 0.572266 13.7995 0.572266 12.4961L0.572266 9.46094C0.572266 7.82943 0.69987 6.46224 0.955078 5.35938C1.21029 4.25651 1.57031 3.3724 2.03516 2.70703C2.50911 2.03255 3.06966 1.54948 3.7168 1.25781C4.37305 0.966146 5.10221 0.820313 5.9043 0.820313C6.55143 0.820313 7.14844 0.916016 7.69531 1.10742C8.2513 1.28971 8.74349 1.58594 9.17187 1.99609C9.60937 2.39714 9.98307 2.9349 10.293 3.60938C10.6029 4.27474 10.8353 5.09049 10.9902 6.05664C11.1543 7.02279 11.2363 8.15755 11.2363 9.46094ZM8.83008 12.9062L8.83008 9.03711C8.83008 8.14388 8.78906 7.36003 8.70703 6.68555C8.625 6.00195 8.50651 5.41862 8.35156 4.93555C8.19661 4.45247 7.99609 4.06055 7.75 3.75977C7.51302 3.45898 7.23958 3.24023 6.92969 3.10352C6.61979 2.95768 6.27799 2.88477 5.9043 2.88477C5.43945 2.88477 5.02474 2.9987 4.66016 3.22656C4.30469 3.44531 3.99935 3.79622 3.74414 4.2793C3.49805 4.76237 3.3112 5.39583 3.18359 6.17969C3.05599 6.96354 2.99219 7.91602 2.99219 9.03711L2.99219 12.9062C2.99219 13.7995 3.0332 14.5879 3.11523 15.2715C3.20638 15.9551 3.32943 16.5475 3.48437 17.0488C3.64844 17.541 3.84896 17.9466 4.08594 18.2656C4.32292 18.5846 4.59635 18.8216 4.90625 18.9766C5.21615 19.1224 5.55339 19.1953 5.91797 19.1953C6.40104 19.1953 6.82031 19.0768 7.17578 18.8398C7.54036 18.6029 7.8457 18.2337 8.0918 17.7324C8.33789 17.222 8.52018 16.5703 8.63867 15.7773C8.76628 14.9753 8.83008 14.0182 8.83008 12.9062ZM25.5645 18.9219V21H14.4355V19.1816L19.918 11.9219C20.5924 11.0286 21.1074 10.2721 21.4629 9.65234C21.8184 9.02344 22.0645 8.46289 22.2012 7.9707C22.3379 7.4694 22.4062 6.95898 22.4062 6.43945C22.4062 5.7832 22.3014 5.19076 22.0918 4.66211C21.8822 4.12435 21.5768 3.69596 21.1758 3.37695C20.7747 3.05794 20.2917 2.89844 19.7266 2.89844C18.9883 2.89844 18.3822 3.07161 17.9082 3.41797C17.4434 3.75521 17.1016 4.22917 16.8828 4.83984C16.6641 5.45052 16.5547 6.15234 16.5547 6.94531L14.1348 6.94531C14.1348 5.82422 14.3398 4.79883 14.75 3.86914C15.1693 2.93945 15.7936 2.20117 16.623 1.6543C17.4525 1.09831 18.487 0.820313 19.7266 0.820313C20.793 0.820313 21.7044 1.04362 22.4609 1.49023C23.2266 1.92773 23.8099 2.54753 24.2109 3.34961C24.6211 4.14258 24.8262 5.07227 24.8262 6.13867C24.8262 6.72201 24.7441 7.31445 24.5801 7.91602C24.4251 8.50846 24.2064 9.10091 23.9238 9.69336C23.6504 10.2858 23.3268 10.8691 22.9531 11.4434C22.5794 12.0176 22.1784 12.5827 21.75 13.1387L17.334 18.9219H25.5645Z" fill="#DF3D3A"/>
</svg>
